<svg width="27" height="27" viewBox="0 0 27 27" fill="none" xmlns="http://www.w3.org/2000/svg">
<path d="M13.8496 0.625C17.4157 0.625 17.8606 0.638125 19.2597 0.70375C20.6575 0.769375 21.6091 0.988563 22.4465 1.31406C23.3127 1.64744 24.0425 2.09894 24.7722 2.82737C25.4396 3.48349 25.956 4.27715 26.2855 5.15312C26.6097 5.98919 26.8302 6.94206 26.8959 8.33987C26.9575 9.739 26.9746 10.1839 26.9746 13.75C26.9746 17.3161 26.9615 17.761 26.8959 19.1601C26.8302 20.5579 26.6097 21.5095 26.2855 22.3469C25.957 23.2233 25.4405 24.0172 24.7722 24.6726C24.1159 25.3398 23.3223 25.8562 22.4465 26.1859C21.6104 26.5101 20.6575 26.7306 19.2597 26.7963C17.8606 26.8579 17.4157 26.875 13.8496 26.875C10.2835 26.875 9.83861 26.8619 8.43948 26.7963C7.04167 26.7306 6.09011 26.5101 5.25273 26.1859C4.37641 25.8571 3.58261 25.3406 2.92698 24.6726C2.25946 24.0166 1.74302 23.2229 1.41367 22.3469C1.08817 21.5108 0.868984 20.5579 0.803359 19.1601C0.741672 17.761 0.724609 17.3161 0.724609 13.75C0.724609 10.1839 0.737734 9.739 0.803359 8.33987C0.868984 6.94075 1.08817 5.9905 1.41367 5.15312C1.74211 4.27661 2.25866 3.48273 2.92698 2.82737C3.5828 2.15962 4.37655 1.64314 5.25273 1.31406C6.09011 0.988563 7.04036 0.769375 8.43948 0.70375C9.83861 0.642062 10.2835 0.625 13.8496 0.625ZM13.8496 7.1875C12.1091 7.1875 10.4399 7.8789 9.20922 9.10961C7.97851 10.3403 7.28711 12.0095 7.28711 13.75C7.28711 15.4905 7.97851 17.1597 9.20922 18.3904C10.4399 19.6211 12.1091 20.3125 13.8496 20.3125C15.5901 20.3125 17.2593 19.6211 18.49 18.3904C19.7207 17.1597 20.4121 15.4905 20.4121 13.75C20.4121 12.0095 19.7207 10.3403 18.49 9.10961C17.2593 7.8789 15.5901 7.1875 13.8496 7.1875ZM22.3809 6.85938C22.3809 6.42425 22.208 6.00695 21.9003 5.69928C21.5927 5.3916 21.1754 5.21875 20.7402 5.21875C20.3051 5.21875 19.8878 5.3916 19.5801 5.69928C19.2725 6.00695 19.0996 6.42425 19.0996 6.85938C19.0996 7.2945 19.2725 7.7118 19.5801 8.01947C19.8878 8.32715 20.3051 8.5 20.7402 8.5C21.1754 8.5 21.5927 8.32715 21.9003 8.01947C22.208 7.7118 22.3809 7.2945 22.3809 6.85938ZM13.8496 9.8125C14.8939 9.8125 15.8954 10.2273 16.6338 10.9658C17.3723 11.7042 17.7871 12.7057 17.7871 13.75C17.7871 14.7943 17.3723 15.7958 16.6338 16.5342C15.8954 17.2727 14.8939 17.6875 13.8496 17.6875C12.8053 17.6875 11.8038 17.2727 11.0654 16.5342C10.327 15.7958 9.91211 14.7943 9.91211 13.75C9.91211 12.7057 10.327 11.7042 11.0654 10.9658C11.8038 10.2273 12.8053 9.8125 13.8496 9.8125Z" fill="white"/>
</svg>
