<svg width="32" height="32" viewBox="0 0 32 32" fill="none" xmlns="http://www.w3.org/2000/svg">
<path d="M0.299805 2.25619C0.299805 1.00997 1.33537 0 2.61309 0H29.4865C30.7642 0 31.7998 1.00997 31.7998 2.25619V29.2438C31.7998 30.49 30.7642 31.5 29.4865 31.5H2.61309C1.33537 31.5 0.299805 30.49 0.299805 29.2438V2.25619ZM10.0313 26.3694V12.1452H5.30437V26.3694H10.0313ZM7.66884 10.2021C9.31668 10.2021 10.3424 9.11137 10.3424 7.74506C10.3129 6.34922 9.31865 5.28806 7.70034 5.28806C6.08202 5.28806 5.02481 6.35119 5.02481 7.74506C5.02481 9.11137 6.05052 10.2021 7.63734 10.2021H7.66884ZM17.3315 26.3694V18.4255C17.3315 18.0003 17.363 17.575 17.489 17.2718C17.8296 16.4233 18.6072 15.5433 19.9145 15.5433C21.6253 15.5433 22.3085 16.8466 22.3085 18.7602V26.3694H27.0354V18.2109C27.0354 13.8403 24.7044 11.8086 21.5938 11.8086C19.0856 11.8086 17.9615 13.1867 17.3315 14.1573V14.2065H17.3C17.3104 14.1901 17.3209 14.1737 17.3315 14.1573V12.1452H12.6065C12.6655 13.48 12.6065 26.3694 12.6065 26.3694H17.3315Z" fill="white"/>
</svg>
