<svg width="28" height="23" viewBox="0 0 28 23" fill="none" xmlns="http://www.w3.org/2000/svg">
<path d="M27.6782 2.875C26.6676 3.33437 25.5782 3.63625 24.4495 3.78063C25.6045 3.085 26.497 1.9825 26.917 0.656875C25.8276 1.31312 24.6201 1.7725 23.347 2.035C22.3101 0.90625 20.8532 0.25 19.1995 0.25C16.1151 0.25 13.5951 2.77 13.5951 5.88062C13.5951 6.32687 13.6476 6.76 13.7395 7.16688C9.06695 6.93063 4.90633 4.68625 2.13695 1.28688C1.65133 2.11375 1.3757 3.085 1.3757 4.10875C1.3757 6.06437 2.36008 7.79688 3.88258 8.78125C2.9507 8.78125 2.08445 8.51875 1.3232 8.125V8.16437C1.3232 10.8944 3.2657 13.1781 5.8382 13.69C5.01228 13.916 4.1452 13.9475 3.30508 13.7819C3.66156 14.9008 4.35972 15.8798 5.30141 16.5813C6.2431 17.2829 7.38098 17.6717 8.55508 17.6931C6.56484 19.2687 4.09782 20.1204 1.55945 20.1081C1.1132 20.1081 0.666953 20.0819 0.220703 20.0294C2.71445 21.6306 5.6807 22.5625 8.85695 22.5625C19.1995 22.5625 24.8826 13.9788 24.8826 6.53687C24.8826 6.2875 24.8826 6.05125 24.8695 5.80187C25.972 5.01437 26.917 4.01688 27.6782 2.875Z" fill="white"/>
</svg>
